<mxfile host="app.diagrams.net" modified="2024-01-22T13:23:22.075Z" agent="Mozilla/5.0 (Windows NT 10.0; Win64; x64) AppleWebKit/537.36 (KHTML, like Gecko) Chrome/118.0.0.0 YaBrowser/23.11.0.0 Safari/537.36" etag="61KnFUmqekyg8MmoU2Pc" version="22.1.21" type="device">
  <diagram name="Страница — 1" id="fUTxwGz3rWedd2_tSDSf">
    <mxGraphModel dx="832" dy="479" grid="1" gridSize="10" guides="1" tooltips="1" connect="1" arrows="1" fold="1" page="1" pageScale="1" pageWidth="827" pageHeight="1169" math="0" shadow="0">
      <root>
        <mxCell id="0" />
        <mxCell id="1" parent="0" />
        <mxCell id="RAh6J8Nhn1JqPmXHBG1S-5" value="Class &lt;br&gt;Animal" style="rounded=0;whiteSpace=wrap;html=1;" vertex="1" parent="1">
          <mxGeometry x="320" y="40" width="160" height="80" as="geometry" />
        </mxCell>
        <mxCell id="RAh6J8Nhn1JqPmXHBG1S-25" style="edgeStyle=orthogonalEdgeStyle;rounded=0;orthogonalLoop=1;jettySize=auto;html=1;exitX=0.5;exitY=0;exitDx=0;exitDy=0;entryX=0;entryY=0.5;entryDx=0;entryDy=0;" edge="1" parent="1" source="RAh6J8Nhn1JqPmXHBG1S-9" target="RAh6J8Nhn1JqPmXHBG1S-5">
          <mxGeometry relative="1" as="geometry" />
        </mxCell>
        <mxCell id="RAh6J8Nhn1JqPmXHBG1S-9" value="Class&lt;br&gt;Home_pets" style="rounded=0;whiteSpace=wrap;html=1;" vertex="1" parent="1">
          <mxGeometry x="200" y="150" width="120" height="60" as="geometry" />
        </mxCell>
        <mxCell id="RAh6J8Nhn1JqPmXHBG1S-27" style="edgeStyle=orthogonalEdgeStyle;rounded=0;orthogonalLoop=1;jettySize=auto;html=1;exitX=0.5;exitY=0;exitDx=0;exitDy=0;entryX=0.5;entryY=1;entryDx=0;entryDy=0;" edge="1" parent="1" source="RAh6J8Nhn1JqPmXHBG1S-13" target="RAh6J8Nhn1JqPmXHBG1S-9">
          <mxGeometry relative="1" as="geometry" />
        </mxCell>
        <mxCell id="RAh6J8Nhn1JqPmXHBG1S-13" value="Class&lt;br&gt;Cat" style="rounded=0;whiteSpace=wrap;html=1;" vertex="1" parent="1">
          <mxGeometry x="230" y="240" width="60" height="80" as="geometry" />
        </mxCell>
        <mxCell id="RAh6J8Nhn1JqPmXHBG1S-28" style="edgeStyle=orthogonalEdgeStyle;rounded=0;orthogonalLoop=1;jettySize=auto;html=1;exitX=0.5;exitY=0;exitDx=0;exitDy=0;entryX=0;entryY=0.75;entryDx=0;entryDy=0;" edge="1" parent="1" source="RAh6J8Nhn1JqPmXHBG1S-15" target="RAh6J8Nhn1JqPmXHBG1S-9">
          <mxGeometry relative="1" as="geometry" />
        </mxCell>
        <mxCell id="RAh6J8Nhn1JqPmXHBG1S-15" value="Class&lt;br&gt;Dog" style="rounded=0;whiteSpace=wrap;html=1;" vertex="1" parent="1">
          <mxGeometry x="140" y="240" width="60" height="80" as="geometry" />
        </mxCell>
        <mxCell id="RAh6J8Nhn1JqPmXHBG1S-24" style="edgeStyle=orthogonalEdgeStyle;rounded=0;orthogonalLoop=1;jettySize=auto;html=1;exitX=0.5;exitY=0;exitDx=0;exitDy=0;entryX=1;entryY=0.5;entryDx=0;entryDy=0;" edge="1" parent="1" source="RAh6J8Nhn1JqPmXHBG1S-16" target="RAh6J8Nhn1JqPmXHBG1S-5">
          <mxGeometry relative="1" as="geometry" />
        </mxCell>
        <mxCell id="RAh6J8Nhn1JqPmXHBG1S-16" value="Class&lt;br&gt;Pack_pets" style="rounded=0;whiteSpace=wrap;html=1;" vertex="1" parent="1">
          <mxGeometry x="480" y="150" width="120" height="60" as="geometry" />
        </mxCell>
        <mxCell id="RAh6J8Nhn1JqPmXHBG1S-26" style="edgeStyle=orthogonalEdgeStyle;rounded=0;orthogonalLoop=1;jettySize=auto;html=1;exitX=0.5;exitY=0;exitDx=0;exitDy=0;entryX=1;entryY=0.75;entryDx=0;entryDy=0;" edge="1" parent="1" source="RAh6J8Nhn1JqPmXHBG1S-17" target="RAh6J8Nhn1JqPmXHBG1S-9">
          <mxGeometry relative="1" as="geometry" />
        </mxCell>
        <mxCell id="RAh6J8Nhn1JqPmXHBG1S-17" value="Class&lt;br&gt;Rodents" style="rounded=0;whiteSpace=wrap;html=1;" vertex="1" parent="1">
          <mxGeometry x="320" y="240" width="60" height="80" as="geometry" />
        </mxCell>
        <mxCell id="RAh6J8Nhn1JqPmXHBG1S-23" style="edgeStyle=orthogonalEdgeStyle;rounded=0;orthogonalLoop=1;jettySize=auto;html=1;exitX=0.5;exitY=0;exitDx=0;exitDy=0;entryX=1;entryY=0.75;entryDx=0;entryDy=0;" edge="1" parent="1" source="RAh6J8Nhn1JqPmXHBG1S-18" target="RAh6J8Nhn1JqPmXHBG1S-16">
          <mxGeometry relative="1" as="geometry" />
        </mxCell>
        <mxCell id="RAh6J8Nhn1JqPmXHBG1S-18" value="&lt;br&gt;&lt;span style=&quot;color: rgb(0, 0, 0); font-family: Helvetica; font-size: 12px; font-style: normal; font-variant-ligatures: normal; font-variant-caps: normal; font-weight: 400; letter-spacing: normal; orphans: 2; text-align: center; text-indent: 0px; text-transform: none; widows: 2; word-spacing: 0px; -webkit-text-stroke-width: 0px; background-color: rgb(251, 251, 251); text-decoration-thickness: initial; text-decoration-style: initial; text-decoration-color: initial; float: none; display: inline !important;&quot;&gt;Class&lt;/span&gt;&lt;br&gt;Donkey" style="rounded=0;whiteSpace=wrap;html=1;" vertex="1" parent="1">
          <mxGeometry x="600" y="240" width="60" height="80" as="geometry" />
        </mxCell>
        <mxCell id="RAh6J8Nhn1JqPmXHBG1S-21" style="edgeStyle=orthogonalEdgeStyle;rounded=0;orthogonalLoop=1;jettySize=auto;html=1;exitX=0.5;exitY=0;exitDx=0;exitDy=0;entryX=0.5;entryY=1;entryDx=0;entryDy=0;" edge="1" parent="1" source="RAh6J8Nhn1JqPmXHBG1S-19" target="RAh6J8Nhn1JqPmXHBG1S-16">
          <mxGeometry relative="1" as="geometry" />
        </mxCell>
        <mxCell id="RAh6J8Nhn1JqPmXHBG1S-19" value="&lt;br&gt;&lt;span style=&quot;color: rgb(0, 0, 0); font-family: Helvetica; font-size: 12px; font-style: normal; font-variant-ligatures: normal; font-variant-caps: normal; font-weight: 400; letter-spacing: normal; orphans: 2; text-align: center; text-indent: 0px; text-transform: none; widows: 2; word-spacing: 0px; -webkit-text-stroke-width: 0px; background-color: rgb(251, 251, 251); text-decoration-thickness: initial; text-decoration-style: initial; text-decoration-color: initial; float: none; display: inline !important;&quot;&gt;Class&lt;/span&gt;&lt;br&gt;Camel" style="rounded=0;whiteSpace=wrap;html=1;" vertex="1" parent="1">
          <mxGeometry x="510" y="240" width="60" height="80" as="geometry" />
        </mxCell>
        <mxCell id="RAh6J8Nhn1JqPmXHBG1S-22" style="edgeStyle=orthogonalEdgeStyle;rounded=0;orthogonalLoop=1;jettySize=auto;html=1;exitX=0.5;exitY=0;exitDx=0;exitDy=0;entryX=0;entryY=0.75;entryDx=0;entryDy=0;" edge="1" parent="1" source="RAh6J8Nhn1JqPmXHBG1S-20" target="RAh6J8Nhn1JqPmXHBG1S-16">
          <mxGeometry relative="1" as="geometry" />
        </mxCell>
        <mxCell id="RAh6J8Nhn1JqPmXHBG1S-20" value="&lt;br&gt;&lt;span style=&quot;color: rgb(0, 0, 0); font-family: Helvetica; font-size: 12px; font-style: normal; font-variant-ligatures: normal; font-variant-caps: normal; font-weight: 400; letter-spacing: normal; orphans: 2; text-align: center; text-indent: 0px; text-transform: none; widows: 2; word-spacing: 0px; -webkit-text-stroke-width: 0px; background-color: rgb(251, 251, 251); text-decoration-thickness: initial; text-decoration-style: initial; text-decoration-color: initial; float: none; display: inline !important;&quot;&gt;Class&lt;/span&gt;&lt;br&gt;Horse" style="rounded=0;whiteSpace=wrap;html=1;" vertex="1" parent="1">
          <mxGeometry x="420" y="240" width="60" height="80" as="geometry" />
        </mxCell>
      </root>
    </mxGraphModel>
  </diagram>
</mxfile>
